<svg width="30" height="30" viewBox="0 0 30 30" fill="none" xmlns="http://www.w3.org/2000/svg">
<path d="M16.5 7H14.5V4H22.5V7H20M16.5 7V9.5M16.5 7H20M16.5 9.5H20M16.5 9.5H14.5M11 9.5V7.5H7V9.5M11 9.5V12.5M11 9.5H14.5M11 12.5H6H7V9.5M11 12.5H12M20 7V9.5M20 9.5H24.5V15M24.5 15L26 22.5M24.5 15H14.5M4 15V9.5H7M4 15L3 22.5M4 15H14.5M3 22.5H26M3 22.5V27H26V22.5M11.5 25H17.5M14.5 9.5V15M6.5 17.5H8M10 17.5H11.5M10 20H11.5M6.5 20H8M14 17.5H15.5M17.5 17.5H19M17.5 20H19M14 20H15.5M21 17.5H22.5M21 20H22.5" stroke="white" stroke-width="1.5" stroke-linecap="round" stroke-linejoin="round"/>
</svg>
