<svg width="26" height="28" viewBox="0 0 26 28" fill="none" xmlns="http://www.w3.org/2000/svg">
<path d="M11.2514 16.7705L11.0379 6.54098H7.83429M11.2514 16.7705V27M11.2514 16.7705H7.83429M11.2514 16.7705H14.8821M11.2514 27H21.5029V16.7705H18.0857M11.2514 27H1V16.7705M1 16.7705V6.54098H4.63071M1 16.7705H4.63071M4.63071 16.7705V19.9672H7.83429V16.7705M4.63071 16.7705H7.83429M7.83429 6.54098V9.7377H4.63071V6.54098M7.83429 6.54098H4.63071M14.8821 16.7705V19.9672H18.0857V16.7705M14.8821 16.7705H18.0857M22.3571 2.27869H24.92V14H15.0957V2.27869H17.6586M22.3571 2.27869V1H17.6586V2.27869M22.3571 2.27869V3.34426H17.6586V2.27869M17.6586 5.90164H22.3571M17.6586 8.67213H22.3571M22.3571 11.2295H17.6586" stroke="white" stroke-width="1.2" stroke-linecap="round" stroke-linejoin="round"/>
</svg>
