<svg width="30" height="30" viewBox="0 0 30 30" fill="none" xmlns="http://www.w3.org/2000/svg">
<path d="M3 21.0397C3.18983 20.5184 3.75932 19.8667 6.85989 19.8667C9.96045 19.8667 10.2136 20.6053 10.4667 21.0397M3 21.0397C3 21.4308 3.63277 22.3431 6.85989 22.3431C9.70734 22.3431 10.4667 21.4959 10.4667 21.0397M3 21.0397V23.5162M10.4667 21.0397V23.5162M10.4667 23.5162C9.24331 24.1245 6.03729 24.976 3 23.5162M10.4667 23.5162V25.4713C7.93559 26.7096 5.53107 26.7096 3 25.4713V23.5162" stroke="white" stroke-linejoin="round"/>
<path d="M12.3333 18.9435C12.4756 18.5242 12.9027 18 15.2282 18C17.5536 18 17.7434 18.5941 17.9333 18.9435M12.3333 18.9435C12.3333 19.258 12.8078 19.9919 15.2282 19.9919C17.3638 19.9919 17.9333 19.3105 17.9333 18.9435M12.3333 18.9435V20.9354M17.9333 18.9435V20.9354M17.9333 20.9354C17.0157 21.4247 14.6112 22.1096 12.3333 20.9354M17.9333 20.9354V22.508M12.3333 20.9354V22.508M17.9333 22.508C16.0349 23.5039 14.2316 23.5039 12.3333 22.508M17.9333 22.508V24.0805M12.3333 22.508V24.0805M17.9333 24.0805C16.0349 25.0764 14.2316 25.0764 12.3333 24.0805M17.9333 24.0805V25.653C16.0349 26.649 14.2316 26.649 12.3333 25.653V24.0805" stroke="white" stroke-linejoin="round"/>
<path d="M19.7999 15.2583C19.9898 14.8176 20.5592 14.2667 23.6598 14.2667C26.7604 14.2667 27.0135 14.891 27.2666 15.2583M19.7999 15.2583C19.7999 15.5888 20.4327 16.36 23.6598 16.36C26.5073 16.36 27.2666 15.6439 27.2666 15.2583M19.7999 15.2583V17.3516M27.2666 15.2583V17.3516M27.2666 17.3516C26.0432 17.8658 22.8372 18.5856 19.7999 17.3516M27.2666 17.3516V19.0043M19.7999 17.3516V19.0043M27.2666 19.0043C24.7355 20.051 22.331 20.051 19.7999 19.0043M27.2666 19.0043V20.657M19.7999 19.0043V20.657M27.2666 20.657C24.7355 21.7037 22.331 21.7037 19.7999 20.657M27.2666 20.657V22.3096M19.7999 20.657V22.3096M27.2666 22.3096C24.7355 23.3563 22.331 23.3563 19.7999 22.3096M27.2666 22.3096V23.9623M19.7999 22.3096V23.9623M27.2666 23.9623C24.7355 25.009 22.331 25.009 19.7999 23.9623M27.2666 23.9623V25.615C24.7355 26.6617 22.331 26.6617 19.7999 25.615V23.9623" stroke="white" stroke-linejoin="round"/>
<path d="M6.73328 12.4331L12.7257 8.51964L16.15 10.8248L23.4594 6M23.4594 6V10.1279M23.4594 6H17.3353" stroke="white" stroke-width="2" stroke-linecap="round" stroke-linejoin="round"/>
</svg>
